<?xml version="1.0" encoding="UTF-8" standalone="no"?><!DOCTYPE svg PUBLIC "-//W3C//DTD SVG 1.1//EN" "http://www.w3.org/Graphics/SVG/1.1/DTD/svg11.dtd"><svg width="100%" height="100%" viewBox="0 0 267 267" version="1.1" xmlns="http://www.w3.org/2000/svg" xmlns:xlink="http://www.w3.org/1999/xlink" xml:space="preserve" xmlns:serif="http://www.serif.com/" style="fill-rule:evenodd;clip-rule:evenodd;stroke-linejoin:round;stroke-miterlimit:2;"><path d="M44.578,264.442c-0.72,-0.038 -1.387,-0.394 -1.82,-0.971c-0.432,-0.577 -0.586,-1.317 -0.42,-2.019c6.376,-26.963 56.162,-237.488 61.386,-259.579c0.259,-1.098 1.239,-1.873 2.367,-1.873c8.856,-0 45.63,-0 54.485,-0c1.127,0 2.107,0.775 2.367,1.873c5.229,22.087 55.066,232.614 61.449,259.578c0.166,0.703 0.012,1.442 -0.42,2.02c-0.433,0.577 -1.1,0.933 -1.82,0.971c-10.025,0.525 -42.494,2.225 -42.494,2.225l-33.142,-0c-1.311,-0 -2.386,-1.038 -2.432,-2.348c-0.158,-4.52 -0.504,-14.386 -0.665,-18.971c-0.047,-1.343 1.003,-2.47 2.346,-2.517c6.016,-0.212 21.576,-0.76 28.031,-0.987c0.714,-0.025 1.382,-0.364 1.825,-0.925c0.443,-0.562 0.616,-1.29 0.473,-1.991c-4.772,-23.469 -37.877,-186.275 -42.278,-207.919c-0.046,-0.229 -0.248,-0.394 -0.482,-0.394c-0.234,0 -0.436,0.165 -0.482,0.394c-4.39,21.659 -37.428,184.671 -42.213,208.284c-0.143,0.706 0.034,1.438 0.483,2.001c0.449,0.563 1.125,0.898 1.845,0.914c6.453,0.151 21.887,0.511 27.905,0.651c0.65,0.015 1.267,0.29 1.713,0.763c0.446,0.473 0.685,1.105 0.662,1.755c-0.162,4.588 -0.506,14.391 -0.665,18.889c-0.046,1.309 -1.118,2.346 -2.427,2.348c-7.904,0.013 -33.072,0.053 -33.072,0.053c0,-0 -32.479,-1.701 -42.505,-2.225Z" style="fill:#53977d;"/></svg>