<?xml version="1.0" encoding="UTF-8" standalone="no"?><!DOCTYPE svg PUBLIC "-//W3C//DTD SVG 1.1//EN" "http://www.w3.org/Graphics/SVG/1.1/DTD/svg11.dtd"><svg width="100%" height="100%" viewBox="0 0 267 267" version="1.1" xmlns="http://www.w3.org/2000/svg" xmlns:xlink="http://www.w3.org/1999/xlink" xml:space="preserve" xmlns:serif="http://www.serif.com/" style="fill-rule:evenodd;clip-rule:evenodd;stroke-linejoin:round;stroke-miterlimit:2;"><g id="dark"><path d="M64.611,52.32c0.735,-0 1.33,0.595 1.33,1.33c0,2.292 0,6.96 0,9.252c0,0.735 -0.595,1.33 -1.33,1.33c-4.502,0 -19.141,0 -23.643,0c-0.353,0 -0.691,0.141 -0.94,0.39c-0.25,0.249 -0.39,0.588 -0.39,0.94c0,9.025 0,61.185 0,70.209c0,0.353 -0.14,0.691 -0.39,0.941c-0.249,0.249 -0.587,0.389 -0.94,0.389c-2.642,0 -8.523,0 -11.164,0c-0.353,0 -0.691,-0.14 -0.941,-0.389c-0.249,-0.25 -0.389,-0.588 -0.389,-0.941c-0,-9.024 -0,-61.184 -0,-70.209c-0,-0.352 -0.14,-0.691 -0.39,-0.94c-0.249,-0.249 -0.588,-0.39 -0.94,-0.39c-4.439,0 -18.715,0 -23.154,0c-0.735,0 -1.33,-0.595 -1.33,-1.33c-0,-2.292 -0,-6.96 -0,-9.252c0,-0.735 0.595,-1.33 1.33,-1.33c8.471,-0 54.81,-0 63.281,-0Z" style="fill:#3b3f44;fill-rule:nonzero;"/><path d="M59.032,136.351c-0.3,-0.016 -0.578,-0.164 -0.758,-0.405c-0.181,-0.24 -0.245,-0.549 -0.176,-0.841c2.264,-9.574 17.558,-74.245 19.415,-82.1c0.109,-0.457 0.517,-0.78 0.987,-0.78c3.05,-0 13.901,-0 16.95,-0c0.47,-0 0.879,0.323 0.987,0.78c1.859,7.853 17.169,72.525 19.435,82.099c0.069,0.293 0.005,0.601 -0.175,0.842c-0.181,0.241 -0.458,0.389 -0.759,0.405c-3.477,0.182 -13.228,0.692 -13.228,0.692l-10.31,0c-0.546,0 -0.994,-0.432 -1.013,-0.978c-0.051,-1.437 -0.144,-4.106 -0.196,-5.562c-0.019,-0.56 0.419,-1.03 0.978,-1.049c1.966,-0.07 6.289,-0.222 8.393,-0.296c0.298,-0.01 0.576,-0.152 0.76,-0.386c0.185,-0.234 0.257,-0.537 0.198,-0.829c-1.606,-7.895 -10.836,-53.289 -13.062,-64.236c-0.047,-0.229 -0.248,-0.394 -0.482,-0.394c-0.234,0 -0.436,0.165 -0.482,0.395c-2.221,10.954 -11.432,56.405 -13.042,64.347c-0.059,0.295 0.014,0.6 0.202,0.835c0.187,0.234 0.468,0.374 0.768,0.381c2.101,0.049 6.383,0.148 8.347,0.194c0.271,0.007 0.528,0.121 0.714,0.318c0.186,0.197 0.285,0.461 0.275,0.732c-0.051,1.456 -0.144,4.104 -0.194,5.534c-0.019,0.545 -0.467,0.977 -1.012,0.978c-2.739,0.004 -10.288,0.016 -10.288,0.016c0,0 -9.754,-0.51 -13.232,-0.692Z" style="fill:#53977d;"/><path d="M137.726,53.65c0,-0.353 -0.14,-0.691 -0.389,-0.94c-0.25,-0.25 -0.588,-0.39 -0.941,-0.39c-2.663,-0 -8.623,-0 -11.286,-0c-0.353,-0 -0.691,0.14 -0.941,0.39c-0.249,0.249 -0.389,0.587 -0.389,0.94c-0,9.916 -0,72.205 -0,82.121c-0,0.353 0.14,0.691 0.389,0.941c0.25,0.249 0.588,0.389 0.941,0.389c2.663,0 8.623,0 11.286,0c0.353,0 0.691,-0.14 0.941,-0.389c0.249,-0.25 0.389,-0.588 0.389,-0.941c0,-9.916 0,-72.205 0,-82.121Z" style="fill:#3b3f44;"/><path d="M201.162,91.346c0.353,0 0.691,0.14 0.941,0.39c0.249,0.249 0.389,0.588 0.389,0.94c0,6.283 0,32.884 0,37.594c0.001,0.45 -0.227,0.87 -0.604,1.116c-5.941,3.809 -13.406,5.715 -22.395,5.715c-9.869,0 -17.597,-2.895 -23.184,-8.686c-5.587,-5.791 -8.38,-14.069 -8.38,-24.835l-0,-19.085c-0,-9.868 2.895,-17.698 8.686,-23.489c5.791,-5.791 13.784,-8.686 23.979,-8.686c6.435,-0 12.484,0.492 18.146,1.476c0.722,0.128 1.204,0.816 1.077,1.538c-0.4,2.285 -1.225,6.991 -1.624,9.271c-0.126,0.716 -0.803,1.198 -1.52,1.083c-6.774,-1.082 -12.5,-1.623 -17.18,-1.623c-5.628,-0 -10.012,1.794 -13.152,5.383c-3.14,3.588 -4.71,8.604 -4.71,15.047l0,19.085c0,7.096 1.611,12.54 4.832,16.333c3.222,3.792 7.891,5.688 14.008,5.688c2.969,0 5.745,-0.353 8.329,-1.06c0.572,-0.162 0.967,-0.684 0.967,-1.279c0.002,-3.573 0.002,-15.771 0.002,-19.827c0,-0.732 -0.591,-1.326 -1.323,-1.33c-2.309,-0.012 -7.048,-0.036 -9.371,-0.048c-0.355,-0.002 -0.695,-0.146 -0.944,-0.4c-0.248,-0.253 -0.385,-0.596 -0.379,-0.951c0.033,-2.068 0.096,-6.005 0.129,-8.051c0.012,-0.726 0.604,-1.309 1.33,-1.309c4.255,0 17.666,0 21.951,0Z" style="fill:#3b3f44;fill-rule:nonzero;"/><path d="M253.517,137.042c-0.657,0.034 -1.24,-0.416 -1.372,-1.06c-0.781,-3.78 -3.314,-16.047 -4.077,-19.739c-0.127,-0.618 -0.672,-1.061 -1.302,-1.061c-3.618,-0 -15.258,-0 -18.876,-0c-0.631,-0 -1.175,0.443 -1.303,1.061c-0.762,3.691 -3.294,15.954 -4.075,19.737c-0.134,0.645 -0.718,1.095 -1.375,1.059c-2.484,-0.134 -8.377,-0.454 -11.218,-0.608c-0.393,-0.021 -0.757,-0.215 -0.993,-0.53c-0.236,-0.315 -0.32,-0.718 -0.23,-1.101c2.49,-10.626 17.041,-72.698 19.093,-81.454c0.141,-0.601 0.678,-1.026 1.295,-1.026c3.337,-0 13.64,-0 16.977,-0c0.617,-0 1.154,0.425 1.295,1.026c2.052,8.755 16.6,70.817 19.093,81.451c0.09,0.383 0.005,0.787 -0.232,1.102c-0.236,0.315 -0.6,0.509 -0.994,0.53c-2.936,0.153 -9.146,0.478 -11.706,0.613Zm-24.181,-34.291c-0.08,0.391 0.02,0.798 0.272,1.108c0.253,0.309 0.631,0.489 1.031,0.489c3.183,-0 10.194,-0 13.378,-0c0.399,-0 0.778,-0.18 1.03,-0.489c0.253,-0.31 0.353,-0.717 0.273,-1.108c-0.82,-4.002 -2.902,-14.167 -2.974,-14.519c-0.002,-0.006 -0.003,-0.012 -0.004,-0.019c-2.582,-13.598 -4.063,-21.387 -4.442,-23.368c-0.048,-0.25 -0.268,-0.431 -0.523,-0.431c-0.07,-0 -0.142,-0 -0.211,-0c-0.26,-0 -0.482,0.187 -0.526,0.442c-1.68,9.785 -3.122,17.573 -4.328,23.365c0,0.001 -0,0.002 -0,0.004c-0.031,0.149 -2.148,10.483 -2.976,14.526Z" style="fill:#3b3f44;fill-rule:nonzero;"/><path d="M183.544,204.972c0,-0.353 -0.14,-0.691 -0.389,-0.94c-0.25,-0.25 -0.588,-0.39 -0.941,-0.39c-15.69,0 -165.194,0 -180.884,0c-0.353,0 -0.691,0.14 -0.94,0.39c-0.25,0.249 -0.39,0.587 -0.39,0.94c0,1.561 0,4.135 0,5.697c0,0.352 0.14,0.691 0.39,0.94c0.249,0.249 0.587,0.39 0.94,0.39c15.69,-0 165.194,-0 180.884,-0c0.353,-0 0.691,-0.141 0.941,-0.39c0.249,-0.249 0.389,-0.588 0.389,-0.94c0,-1.562 0,-4.136 0,-5.697Z" style="fill:#3b3f44;"/><path d="M181.016,211.999c-8.624,-0 -15.3,-2.142 -20.029,-6.426c-4.728,-4.283 -7.092,-10.299 -7.092,-18.047l-0,-16.536c-0,-7.749 2.364,-13.764 7.092,-18.048c4.729,-4.284 11.481,-6.425 20.256,-6.425c8.7,-0 15.415,2.141 20.143,6.425c4.728,4.284 7.092,10.299 7.092,18.048l0,16.536c0,7.811 -2.383,13.842 -7.149,18.094c-4.766,4.253 -11.537,6.379 -20.313,6.379Zm0.114,-9.166c9.759,-0 14.639,-5.134 14.639,-15.402l-0,-16.441c-0,-10.205 -4.88,-15.308 -14.639,-15.308c-9.684,0 -14.525,5.103 -14.525,15.308l-0,16.441c-0,10.268 4.841,15.402 14.525,15.402Z" style="fill:#3b3f44;fill-rule:nonzero;"/><path d="M237.693,211.35c-10.966,-0 -20.372,-2.055 -28.218,-6.164c-0.636,-0.34 -0.885,-1.125 -0.561,-1.769c0.938,-1.868 2.784,-5.536 3.728,-7.41c0.324,-0.643 1.101,-0.911 1.752,-0.605c8.091,3.774 15.986,5.661 23.685,5.661c4.293,-0 7.877,-0.679 10.753,-2.035c2.876,-1.357 4.314,-3.542 4.314,-6.557c-0,-1.959 -0.837,-3.579 -2.511,-4.861c-1.674,-1.28 -4.612,-2.373 -8.816,-3.277c-0.002,-0 -0.005,-0.001 -0.008,-0.001c-0.205,-0.046 -11.87,-2.633 -12.222,-2.711c-0.006,-0.001 -0.013,-0.003 -0.019,-0.004c-11.668,-2.413 -17.502,-7.989 -17.502,-16.728c-0,-5.879 2.425,-10.438 7.275,-13.679c4.851,-3.24 11.482,-4.86 19.895,-4.86c7.96,-0 15.65,1.214 23.072,3.642c0.336,0.111 0.613,0.352 0.771,0.668c0.158,0.316 0.183,0.683 0.071,1.018c-0.641,1.905 -1.85,5.499 -2.495,7.413c-0.113,0.336 -0.355,0.612 -0.673,0.769c-0.317,0.156 -0.684,0.18 -1.019,0.064c-6.452,-2.192 -12.941,-3.288 -19.469,-3.288c-9.186,0 -13.779,2.563 -13.779,7.687c0,1.96 0.795,3.486 2.383,4.579c1.587,1.092 4.225,2.052 7.913,2.881c0.004,0.001 0.009,0.002 0.013,0.003c0.299,0.064 9.978,2.134 10.037,2.146c0,0 0,0 0,0c7.04,1.507 12.234,3.599 15.582,6.274c3.348,2.675 5.022,6.5 5.022,11.474c-0,6.18 -2.511,11.003 -7.533,14.47c-5.023,3.466 -12.169,5.2 -21.441,5.2Z" style="fill:#3b3f44;fill-rule:nonzero;"/><path d="M59.533,127.726c-0.388,-0.464 -2.847,-0.622 -6.111,1.691c-4.085,2.894 -8.306,8.254 -9.166,11.441c-0.702,2.604 -0.745,8.857 0.937,13.027c2.023,5.015 5.059,8.25 5.059,8.25c-0,-0 -1.807,6.85 -1.84,9.402c-0.026,2.044 1.672,2.905 0.86,4.781c-1.551,3.586 -4.855,5.496 -6.844,8.756c-1.989,3.26 -3.922,7.768 -4.309,10.873c-0.166,1.333 0.013,3.779 0.556,5.393c0.535,1.593 0.614,1.941 1.433,2.364c0.487,0.252 1.896,0.816 2.768,0.524c0.722,-0.241 0.932,-1.309 1.252,-1.484c0.707,-0.387 0.722,-0.534 0.63,-1.442c-0.215,-2.128 -1.32,-4.607 0.368,-6.403c3.473,-3.694 10.894,-5.913 10.894,-5.913c-0,-0 -1.533,2.176 -1.172,5.148c0.218,1.795 5.349,8.258 8.287,9.304c1.422,0.506 2.592,1.096 4.047,1.286c2.488,0.323 5.135,-0.004 6.403,-0.151c0.994,-0.115 1.716,-1.236 1.614,-2.532c-0.22,-2.796 -9.898,-3.155 -10.428,-5.829c-0.221,-1.115 1.946,-2.639 3.283,-4.735c1.868,-2.929 3.148,-6.403 3.148,-6.403c-0,-0 4.335,0.679 6.608,0.679c2.619,-0 8.561,-0.57 8.561,-0.57c0,-0 -0.371,4.136 -0.652,6.31c-0.332,2.563 -1.78,6.492 -1.282,8.528c0.394,1.613 1.33,3.383 3.1,3.764c1.117,0.24 4.361,0.139 6.402,-0.377c1.194,-0.302 1.799,-0.871 1.797,-1.266c-0.012,-3.42 -4.312,-2.983 -3.898,-4.623c0.301,-1.191 1.3,-4.437 2.768,-6.722c2.086,-3.248 4.745,-4.9 4.745,-4.9c0,0 6.424,4.077 9.482,5.592c2.71,1.343 8.297,3.609 8.297,3.609c0,0 2.861,2.176 5.711,3.565c1.699,0.828 3.482,1.069 4.41,1.248c0.93,0.179 2.986,0.1 4.257,-0.732c1.079,-0.706 1.498,-2.098 1.183,-2.837c-0.413,-0.967 -3.282,-2.338 -5.851,-4.088c-2.385,-1.625 -4.498,-3.67 -4.498,-3.67c0,-0 -3.334,-2.412 -4.74,-3.693c-1.34,-1.223 -3.218,-3.998 -3.218,-3.998c0,0 0.151,-3.363 0.266,-4.707c0.098,-1.142 -0.692,-2.561 0.426,-2.811c2.332,-0.522 13.128,0.56 16.036,-0.67c1.513,-0.641 1.52,-3.002 1.52,-3.002c-0,0 0.639,-0.469 0.598,-0.799c-0.092,-0.732 0.06,-2.485 -0.253,-4.279c-0.334,-1.912 0.487,-4.264 0.113,-6.302c-0.403,-2.194 -1.265,-2.912 -1.907,-3.8c-0.484,-0.668 -1.946,-1.528 -1.946,-1.528c0,-0 3.64,-4.948 2.809,-5.46c-0.831,-0.513 -7.795,2.384 -7.795,2.384c0,-0 -1.696,-1.361 -4.07,-1.137c-1.686,0.16 -3.687,1.766 -5.784,2.332c-1.547,0.418 -3.357,2.326 -4.754,2.717c-2.428,0.679 -3.699,1.129 -4.857,1.498c-1.768,0.563 -1.806,1.077 -4.561,1.644c-2.138,0.44 -2.701,-0.977 -5.395,-1.157c-1.652,-0.111 -2.248,0.25 -3.463,-0.01c-3.764,-0.805 -2.664,-2.744 -12.88,-3.346c-5.016,-0.296 -17.245,2.179 -17.245,2.179c-0,0 -3.533,0.673 -6.403,-1.425c-1.996,-1.459 -3.671,-4.259 -3.613,-9.558c0.018,-1.739 1.215,-4.657 2.918,-7.193c2.7,-4.021 6.271,-7.686 5.389,-8.737Z" style="fill:#3b3f44;"/></g></svg>